<?xml version="1.0" encoding="UTF-8"?>
<svg version="1.1" xmlns="http://www.w3.org/2000/svg" width="179" height="179">
<path d="M0 0 C59.07 0 118.14 0 179 0 C179 59.07 179 118.14 179 179 C119.93 179 60.86 179 0 179 C0 119.93 0 60.86 0 0 Z " fill="#FDFEFE" transform="translate(0,0)"/>
<path d="M0 0 C0.99 0.33 1.98 0.66 3 1 C3 1.66 3 2.32 3 3 C3.639375 3.226875 4.27875 3.45375 4.9375 3.6875 C8.31204942 5.13373547 11.37365691 6.9028354 14.5234375 8.78125 C17.64633391 10.40936697 17.64633391 10.40936697 24 12 C24 22.23 24 32.46 24 43 C20.04 44.98 16.08 46.96 12 49 C8.03997663 51.73829809 8.03997663 51.73829809 4.15625 54.58203125 C1.98058025 56.0127706 0.59586997 56.81234675 -2 57 C-3.7890625 55.99609375 -3.7890625 55.99609375 -5.625 54.4375 C-8.69426806 51.98666655 -11.78555557 49.75956492 -15.125 47.6875 C-15.91132812 47.19636719 -16.69765625 46.70523438 -17.5078125 46.19921875 C-20.33896674 44.83689218 -22.89470447 44.38253641 -26 44 C-26.15498126 33.28907291 -25.67842194 22.68514555 -25 12 C-23.68 11.67 -22.36 11.34 -21 11 C-20.979375 11.763125 -20.95875 12.52625 -20.9375 13.3125 C-20.628125 14.199375 -20.31875 15.08625 -20 16 C-17.00803032 17.50935367 -17.00803032 17.50935367 -14.81640625 18.25 C-13 19 -13 19 -10.6875 21.0625 C-6.79272969 23.87035767 -2.68348775 24.30884453 2 25 C2 24.34 2 23.68 2 23 C2.84304687 22.60167969 3.68609375 22.20335938 4.5546875 21.79296875 C5.65039062 21.26316406 6.74609375 20.73335937 7.875 20.1875 C8.96554688 19.66542969 10.05609375 19.14335938 11.1796875 18.60546875 C14.22221402 17.15275103 14.22221402 17.15275103 16 14 C11.71 11.69 7.42 9.38 3 7 C3 6.34 3 5.68 3 5 C2.01 5 1.02 5 0 5 C0 3.35 0 1.7 0 0 Z " fill="#66957A" transform="translate(50,59)"/>
<path d="M0 0 C6.0509801 4.90142021 11.94411486 10.8845515 14.75 18.25 C14.75 19.24 14.75 20.23 14.75 21.25 C12.11 21.25 9.47 21.25 6.75 21.25 C6.37875 20.239375 6.0075 19.22875 5.625 18.1875 C1.89097233 9.66978712 -3.8522623 5.8034009 -12.25 2.25 C-13.07113281 1.88132812 -13.89226563 1.51265625 -14.73828125 1.1328125 C-22.5187884 -1.60186031 -31.81325252 0.16512697 -39.25 3.25 C-46.51872389 7.37085134 -50.50351091 12.91670825 -54.25 20.25 C-54.62511719 20.84167969 -55.00023437 21.43335937 -55.38671875 22.04296875 C-58.07426686 28.91384966 -57.22120971 39.79133112 -54.8125 46.6875 C-50.25326106 56.06193515 -42.96668156 62.64190581 -33.25 66.25 C-24.46775886 68.92814878 -16.25816025 67.35963584 -8.25 63.25 C-5.07636409 61.36932687 -2.74740511 59.86746841 -0.4375 57 C2.974153 54.2706776 6.54076648 54.92621281 10.75 55.25 C10.75 55.91 10.75 56.57 10.75 57.25 C10.09 57.25 9.43 57.25 8.75 57.25 C8.38261719 58.11625 8.38261719 58.11625 8.0078125 59 C4.20436916 65.80367504 -3.20168835 70.35618099 -10.25 73.25 C-11.02730469 73.60707031 -11.80460937 73.96414062 -12.60546875 74.33203125 C-21.53140771 77.43040002 -31.5178039 74.89325936 -40.25 72.25 C-40.25 71.59 -40.25 70.93 -40.25 70.25 C-40.97316406 70.1675 -41.69632813 70.085 -42.44140625 70 C-49.89643184 68.00922822 -56.16911669 60.01285359 -60.06640625 53.609375 C-64.81995723 44.13364962 -66.10785239 32.66143267 -63.5234375 22.3515625 C-62.5828804 19.86635065 -61.5166041 17.5845252 -60.25 15.25 C-59.87617187 14.54359375 -59.50234375 13.8371875 -59.1171875 13.109375 C-54.54889843 5.18293966 -47.89068291 -1.51774506 -39.3125 -4.875 C-38.47847656 -5.20757812 -37.64445312 -5.54015625 -36.78515625 -5.8828125 C-23.69391471 -10.3608643 -11.19264735 -7.81085332 0 0 Z " fill="#216491" transform="translate(74.25,52.75)"/>
<path d="M0 0 C0.66 0 1.32 0 2 0 C2 0.99 2 1.98 2 3 C2.66 3.33 3.32 3.66 4 4 C3.34 4 2.68 4 2 4 C2 5.65 2 7.3 2 9 C2.99 9 3.98 9 5 9 C5 9.66 5 10.32 5 11 C5.825 11.226875 6.65 11.45375 7.5 11.6875 C11.73136618 13.27426232 15.25171013 15.50748237 19 18 C16.46738559 22.43207522 12.56169169 24.13504735 8 26 C6.67384703 26.36084232 5.34185235 26.70281123 4 27 C4 27.66 4 28.32 4 29 C-2.88365412 28.9717883 -6.96201563 27.89647968 -12.23828125 23.43359375 C-14.3336138 21.72852269 -16.42957894 20.80325658 -19 20 C-19 18.35 -19 16.7 -19 15 C-19.66 14.67 -20.32 14.34 -21 14 C-17.82679218 10.46413986 -15.83256305 8.41421969 -11 8 C-11 8.66 -11 9.32 -11 10 C-8.64214682 9.10664203 -8.64214682 9.10664203 -7.875 5.9375 C-7.58625 4.968125 -7.2975 3.99875 -7 3 C-5.02 2.67 -3.04 2.34 -1 2 C-1.66 3.65 -2.32 5.3 -3 7 C-2.01 7 -1.02 7 0 7 C0 4.69 0 2.38 0 0 Z " fill="#BAD0D4" transform="translate(48,55)"/>
<path d="M0 0 C0.20453151 3.37409559 0.32801449 6.74658992 0.4375 10.125 C0.49615234 11.07632813 0.55480469 12.02765625 0.61523438 13.0078125 C0.7835812 19.93408203 0.7835812 19.93408203 -1.48388672 23.01855469 C-4.41895849 25.64552501 -5.97673071 27 -10 27 C-10 27.66 -10 28.32 -10 29 C-16.625 33 -16.625 33 -20 33 C-20.11632513 29.58362047 -20.18728897 26.16775103 -20.25 22.75 C-20.28351562 21.78191406 -20.31703125 20.81382813 -20.3515625 19.81640625 C-20.44986675 12.68934806 -20.44986675 12.68934806 -18.4296875 9.59375 C-15.29446072 7.53720253 -12.15149523 5.57402827 -8.875 3.75 C-8.24207031 3.38648437 -7.60914063 3.02296875 -6.95703125 2.6484375 C-2.2675047 0 -2.2675047 0 0 0 Z " fill="#DDE7E5" transform="translate(70,77)"/>
<path d="M0 0 C2.61065302 1.23773192 5.21294605 2.48933927 7.8125 3.75 C8.55048828 4.09804687 9.28847656 4.44609375 10.04882812 4.8046875 C10.76103516 5.15273437 11.47324219 5.50078125 12.20703125 5.859375 C12.8616333 6.17358398 13.51623535 6.48779297 14.19067383 6.81152344 C16.45085895 8.29615185 17.62769604 9.66750165 19 12 C19.34057617 14.38183594 19.34057617 14.38183594 19.29296875 16.984375 C19.28330078 17.91894531 19.27363281 18.85351562 19.26367188 19.81640625 C19.23853516 20.78449219 19.21339844 21.75257812 19.1875 22.75 C19.16719727 24.22533203 19.16719727 24.22533203 19.14648438 25.73046875 C19.11118726 28.15420415 19.06188054 30.57682145 19 33 C15.32083614 31.59522834 11.85211525 29.97371417 8.375 28.125 C7.43398438 27.63257812 6.49296875 27.14015625 5.5234375 26.6328125 C0.09062079 23.11746051 -0.69678435 19.01484144 -2 13 C-0.68 12.01 0.64 11.02 2 10 C1.34 9.67 0.68 9.34 0 9 C0 6.03 0 3.06 0 0 Z " fill="#D9E5E7" transform="translate(29,77)"/>
<path d="M0 0 C0 0.66 0 1.32 0 2 C-0.66 2 -1.32 2 -2 2 C-2.24492188 2.5775 -2.48984375 3.155 -2.7421875 3.75 C-6.54563084 10.55367504 -13.95168835 15.10618099 -21 18 C-21.77730469 18.35707031 -22.55460937 18.71414062 -23.35546875 19.08203125 C-32.28140771 22.18040002 -42.2678039 19.64325936 -51 17 C-51 16.34 -51 15.68 -51 15 C-52.65 14.67 -54.3 14.34 -56 14 C-55.01 13.67 -54.02 13.34 -53 13 C-53 12.01 -53 11.02 -53 10 C-51.58297487 10.14230808 -50.1663904 10.28900746 -48.75 10.4375 C-47.56664062 10.55931641 -47.56664062 10.55931641 -46.359375 10.68359375 C-44 11 -44 11 -42.0234375 11.515625 C-32.2484616 13.85558062 -23.98267576 10.95269675 -15.625 6 C-12.96201014 4.13649379 -12.96201014 4.13649379 -11.1875 1.75 C-7.775847 -0.9793224 -4.20923352 -0.32378719 0 0 Z " fill="#6EA773" transform="translate(85,108)"/>
<path d="M0 0 C11.99240911 -0.87041679 21.68345128 1.62093757 31.12109375 9.265625 C36.35809415 14.09977922 41.42632381 19.24410001 44 26 C44 26.99 44 27.98 44 29 C41.36 29 38.72 29 36 29 C35.62875 27.989375 35.2575 26.97875 34.875 25.9375 C31.14097233 17.41978712 25.3977377 13.5534009 17 10 C16.19304688 9.63777344 15.38609375 9.27554688 14.5546875 8.90234375 C11.71006324 7.89759114 9.191884 7.59218439 6.1875 7.375 C5.21167969 7.30023438 4.23585938 7.22546875 3.23046875 7.1484375 C2.49441406 7.09945312 1.75835937 7.05046875 1 7 C1 6.67 1 6.34 1 6 C1.71027344 5.93941406 2.42054687 5.87882812 3.15234375 5.81640625 C4.53099609 5.69072266 4.53099609 5.69072266 5.9375 5.5625 C6.85402344 5.48128906 7.77054688 5.40007813 8.71484375 5.31640625 C10.96159732 5.23955024 10.96159732 5.23955024 12 4 C9.69 3.67 7.38 3.34 5 3 C5 2.67 5 2.34 5 2 C3.35 1.67 1.7 1.34 0 1 C0 0.67 0 0.34 0 0 Z " fill="#448984" transform="translate(45,45)"/>
<path d="M0 0 C0.33 0 0.66 0 1 0 C1 7.26 1 14.52 1 22 C3.64 20.68 6.28 19.36 9 18 C9.66 18 10.32 18 11 18 C11 17.34 11 16.68 11 16 C13 15 15 14 17 13 C17.70125 12.608125 18.4025 12.21625 19.125 11.8125 C21 11 21 11 25 11 C24.70703125 12.921875 24.70703125 12.921875 24 15 C22.19052566 15.6828205 20.37455067 16.35166593 18.53515625 16.94921875 C12.59970886 19.40936567 6.54691461 23.45308539 2 28 C-1.31486994 27.63787135 -3.55627401 26.1297944 -6.25 24.25 C-7.03375 23.71375 -7.8175 23.1775 -8.625 22.625 C-9.40875 22.08875 -10.1925 21.5525 -11 21 C-15.20219664 18.23855649 -19.21361805 15.64531879 -24 14 C-23.67 12.02 -23.34 10.04 -23 8 C-22.01 7.67 -21.02 7.34 -20 7 C-17 11.75 -17 11.75 -17 14 C-16.21625 14.20625 -15.4325 14.4125 -14.625 14.625 C-9.70726245 16.49034873 -5.44157897 19.20865195 -1 22 C-1.00785522 21.05362671 -1.00785522 21.05362671 -1.01586914 20.08813477 C-1.03657826 17.24626653 -1.04964066 14.40441412 -1.0625 11.5625 C-1.07087891 10.56927734 -1.07925781 9.57605469 -1.08789062 8.55273438 C-1.09272461 7.13637695 -1.09272461 7.13637695 -1.09765625 5.69140625 C-1.10551147 4.37958374 -1.10551147 4.37958374 -1.11352539 3.04125977 C-1 1 -1 1 0 0 Z " fill="#5D8C84" transform="translate(49,88)"/>
<path d="M0 0 C3.38003689 0.99864726 6.04852445 2.55336642 9.0625 4.375 C10.13113281 5.01566406 11.19976562 5.65632813 12.30078125 6.31640625 C13.10902344 6.81011719 13.91726562 7.30382812 14.75 7.8125 C12.73404808 10.80816687 11.07963626 12.46363074 7.8125 14 C6.80896484 14.48533203 6.80896484 14.48533203 5.78515625 14.98046875 C3.7892361 15.79645914 1.85262372 16.34681824 -0.25 16.8125 C-0.25 17.4725 -0.25 18.1325 -0.25 18.8125 C-2.23 18.8125 -4.21 18.8125 -6.25 18.8125 C-5.92 17.8225 -5.59 16.8325 -5.25 15.8125 C-5.25 15.4825 -5.25 15.1525 -5.25 14.8125 C-5.91 14.1525 -6.57 13.4925 -7.25 12.8125 C-4.25 10.8125 -4.25 10.8125 -1.25 10.8125 C-1.25 10.1525 -1.25 9.4925 -1.25 8.8125 C-2.57 9.1425 -3.89 9.4725 -5.25 9.8125 C-5.58 7.5025 -5.91 5.1925 -6.25 2.8125 C-2.94724771 -0.24560398 -2.94724771 -0.24560398 0 0 Z " fill="#EAF2F3" transform="translate(52.25,65.1875)"/>
<path d="M0 0 C0 0.33 0 0.66 0 1 C-1.98 1.33 -3.96 1.66 -6 2 C-6.33 3.32 -6.66 4.64 -7 6 C-7 5.01 -7 4.02 -7 3 C-7.66 3 -8.32 3 -9 3 C-8.67 3.66 -8.34 4.32 -8 5 C-7.95977609 7.3329866 -7.95679753 9.66706666 -8 12 C-8.33 11.34 -8.66 10.68 -9 10 C-9.99 10 -10.98 10 -12 10 C-11.34 8.35 -10.68 6.7 -10 5 C-12.98220128 5.54839062 -12.98220128 5.54839062 -16 7 C-17.45160938 10.01779872 -17.45160938 10.01779872 -18 13 C-18.66 13 -19.32 13 -20 13 C-20 12.34 -20 11.68 -20 11 C-26.57640585 13.9367323 -29.91859391 16.36312535 -33 23 C-33 22.01 -33 21.02 -33 20 C-34.32 20.33 -35.64 20.66 -37 21 C-34.97384348 12.69275829 -29.40308048 7.63965807 -22.34765625 3.22265625 C-15.27417527 -0.46120323 -7.80531843 -0.26260884 0 0 Z " fill="#F2F8F9" transform="translate(57,52)"/>
<path d="M0 0 C0.97904297 -0.00193359 1.95808594 -0.00386719 2.96679688 -0.00585938 C4.52624023 0.0009082 4.52624023 0.0009082 6.1171875 0.0078125 C7.18001953 0.00974609 8.24285156 0.01167969 9.33789062 0.01367188 C18.58017132 0.06357021 27.7745974 0.48106371 36.9921875 1.1328125 C37.4871875 3.1128125 37.4871875 3.1128125 37.9921875 5.1328125 C22.4821875 5.1328125 6.9721875 5.1328125 -9.0078125 5.1328125 C-9.0078125 3.8128125 -9.0078125 2.4928125 -9.0078125 1.1328125 C-5.93787993 0.23804489 -3.193006 0.00413985 0 0 Z " fill="#D2E1E5" transform="translate(86.0078125,98.8671875)"/>
<path d="M0 0 C1.32 0 2.64 0 4 0 C4 3.96 4 7.92 4 12 C5.98 12 7.96 12 10 12 C10.66 12.33 11.32 12.66 12 13 C12.13277344 12.42765625 12.26554688 11.8553125 12.40234375 11.265625 C12.99380317 9.02349125 13.73288854 6.91420381 14.5625 4.75 C14.83191406 4.04359375 15.10132813 3.3371875 15.37890625 2.609375 C15.58386719 2.07828125 15.78882813 1.5471875 16 1 C17.65 1 19.3 1 21 1 C21.84026396 2.76755526 22.67198722 4.53917263 23.5 6.3125 C23.9640625 7.29863281 24.428125 8.28476563 24.90625 9.30078125 C26 12 26 12 26 15 C24.68 14.67 23.36 14.34 22 14 C22 13.34 22 12.68 22 12 C19.6568787 12.25561323 17.32156597 12.59270772 15 13 C14.67 13.66 14.34 14.32 14 15 C9.38 15 4.76 15 0 15 C0 10.05 0 5.1 0 0 Z " fill="#487A9B" transform="translate(129,79)"/>
<path d="M0 0 C1.98498051 0.92512666 3.96286018 1.86550237 5.9375 2.8125 C7.03964844 3.33457031 8.14179687 3.85664062 9.27734375 4.39453125 C12 6 12 6 13 9 C12.01 9 11.02 9 10 9 C10 10.65 10 12.3 10 14 C10.639375 14.28875 11.27875 14.5775 11.9375 14.875 C14 16 14 16 15 18 C13.02 18.33 11.04 18.66 9 19 C9 18.01 9 17.02 9 16 C8.01 16 7.02 16 6 16 C5.67 18.64 5.34 21.28 5 24 C2.32423308 22.99382318 1.2214892 22.45785454 -0.046875 19.8359375 C-0.27890625 19.02382812 -0.5109375 18.21171875 -0.75 17.375 C-0.99234375 16.55773437 -1.2346875 15.74046875 -1.484375 14.8984375 C-1.65453125 14.27195312 -1.8246875 13.64546875 -2 13 C-0.68 12.01 0.64 11.02 2 10 C1.34 9.67 0.68 9.34 0 9 C0 6.03 0 3.06 0 0 Z " fill="#DFE8EB" transform="translate(29,77)"/>
<path d="M0 0 C0 0.33 0 0.66 0 1 C1.98 1.33 3.96 1.66 6 2 C2.85408067 4.80045623 0.932936 5.35261589 -3.25 5.1875 C-4.14203125 5.16042969 -5.0340625 5.13335937 -5.953125 5.10546875 C-6.62859375 5.07066406 -7.3040625 5.03585938 -8 5 C-8 5.66 -8 6.32 -8 7 C-9.08667969 7.25523438 -9.08667969 7.25523438 -10.1953125 7.515625 C-15.90460951 8.94675545 -20.35336236 10.35804077 -25 14 C-25 11 -25 11 -23.5 9.3125 C-23.005 8.879375 -22.51 8.44625 -22 8 C-23.65 8.33 -25.3 8.66 -27 9 C-27 9.66 -27 10.32 -27 11 C-28.32 11.33 -29.64 11.66 -31 12 C-31.33 13.32 -31.66 14.64 -32 16 C-33.32 15.67 -34.64 15.34 -36 15 C-34.75323147 13.72599623 -33.5024352 12.45593346 -32.25 11.1875 C-31.55390625 10.47980469 -30.8578125 9.77210937 -30.140625 9.04296875 C-21.20942378 0.51921284 -12.03887505 -0.62449496 0 0 Z " fill="#1C5F90" transform="translate(54,46)"/>
<path d="M0 0 C1.32 0.33 2.64 0.66 4 1 C5.06492697 13.33962999 5.06492697 13.33962999 2.546875 17.265625 C-0.406636 19.82202528 -2.02522728 21 -6 21 C-6.33 21.66 -6.66 22.32 -7 23 C-6.67 19.37 -6.34 15.74 -6 12 C-6.99 11.67 -7.98 11.34 -9 11 C-8.67 10.01 -8.34 9.02 -8 8 C-7.34 8 -6.68 8 -6 8 C-6.185625 7.401875 -6.37125 6.80375 -6.5625 6.1875 C-7 4 -7 4 -6 1 C-5.34 1 -4.68 1 -4 1 C-4 1.99 -4 2.98 -4 4 C-2.68 4 -1.36 4 0 4 C0 2.68 0 1.36 0 0 Z " fill="#D3E0DA" transform="translate(66,83)"/>
<path d="M0 0 C0.41185547 0.84111328 0.41185547 0.84111328 0.83203125 1.69921875 C5.38946202 10.67690011 10.57038772 18.26786365 19 24 C17.02 24.99 17.02 24.99 15 26 C15.66 26.66 16.32 27.32 17 28 C11.60390879 27.86509772 8.83515982 25.70195417 5.03515625 22.1875 C1.55864858 18.45075471 -1.24236319 14.28295467 -4 10 C-3 8 -3 8 -1 7 C-0.59270772 4.67843403 -0.25561323 2.3431213 0 0 Z " fill="#4A8C82" transform="translate(17,94)"/>
<path d="M0 0 C8.625 -0.25 8.625 -0.25 12 2 C12.125 4.8125 12.125 4.8125 12 8 C12.291224 9.67453799 12.61070799 11.34550895 13 13 C8.61501596 15.92332269 5.2225328 15.1356502 0 15 C0 10.05 0 5.1 0 0 Z " fill="#376B8C" transform="translate(157,79)"/>
<path d="M0 0 C4 1 4 1 5.75 3.4375 C7 6 7 6 7 8 C9.33524782 5.74259377 11.18705073 3.7194239 13 1 C13.99 1 14.98 1 16 1 C16 5.62 16 10.24 16 15 C15.01 15 14.02 15 13 15 C12.67 13.02 12.34 11.04 12 9 C11.34 10.32 10.68 11.64 10 13 C9.01 13 8.02 13 7 13 C6.67 11.68 6.34 10.36 6 9 C5.34 9 4.68 9 4 9 C4 10.98 4 12.96 4 15 C2.68 15 1.36 15 0 15 C0 10.05 0 5.1 0 0 Z " fill="#427797" transform="translate(91,79)"/>
<path d="M0 0 C9.32329371 -0.67669067 16.81498988 0.25144451 25 5 C27.33984375 7.171875 27.33984375 7.171875 29 9 C28.01 10.485 28.01 10.485 27 12 C23.11051998 11.59484583 19.85474313 11.02680236 16.25 9.5 C11.31310672 7.50774976 6.27145667 7.28101515 1 7 C1 6.67 1 6.34 1 6 C1.71027344 5.93941406 2.42054687 5.87882812 3.15234375 5.81640625 C4.53099609 5.69072266 4.53099609 5.69072266 5.9375 5.5625 C6.85402344 5.48128906 7.77054688 5.40007813 8.71484375 5.31640625 C10.96159732 5.23955024 10.96159732 5.23955024 12 4 C9.69 3.67 7.38 3.34 5 3 C5 2.67 5 2.34 5 2 C3.35 1.67 1.7 1.34 0 1 C0 0.67 0 0.34 0 0 Z " fill="#3D7F98" transform="translate(45,45)"/>
<path d="M0 0 C1.41702513 0.14230808 2.8336096 0.28900746 4.25 0.4375 C5.43335938 0.55931641 5.43335938 0.55931641 6.640625 0.68359375 C9 1 9 1 10.84375 1.5 C13.95995561 2.2225984 17.06082855 2.35579444 20.25 2.5625 C21.51328125 2.64628906 22.7765625 2.73007813 24.078125 2.81640625 C25.04234375 2.87699219 26.0065625 2.93757813 27 3 C24.8614515 5.1385485 23.86724686 5.42655063 21 6 C23.97 6.495 23.97 6.495 27 7 C27 7.33 27 7.66 27 8 C23.58335127 8.02908357 20.1667345 8.04682691 16.75 8.0625 C15.29787109 8.07506836 15.29787109 8.07506836 13.81640625 8.08789062 C12.88183594 8.09111328 11.94726562 8.09433594 10.984375 8.09765625 C10.12553711 8.10289307 9.26669922 8.10812988 8.38183594 8.11352539 C6.11329256 8.00539986 4.17368285 7.63582423 2 7 C2 6.34 2 5.68 2 5 C0.35 4.67 -1.3 4.34 -3 4 C-2.01 3.67 -1.02 3.34 0 3 C0 2.01 0 1.02 0 0 Z " fill="#589A7D" transform="translate(32,118)"/>
<path d="M0 0 C1.0326802 2.78823655 1.04509293 3.8677274 0.0625 6.75 C-0.288125 7.4925 -0.63875 8.235 -1 9 C-1.99 9 -2.98 9 -4 9 C-4 11.64 -4 14.28 -4 17 C-3.01 17.33 -2.02 17.66 -1 18 C-0.67 15.36 -0.34 12.72 0 10 C0.33 10 0.66 10 1 10 C1.08685287 13.29150125 1.14033895 16.5827096 1.1875 19.875 C1.22520508 21.28072266 1.22520508 21.28072266 1.26367188 22.71484375 C1.27333984 23.61074219 1.28300781 24.50664063 1.29296875 25.4296875 C1.3086792 26.25710449 1.32438965 27.08452148 1.34057617 27.93701172 C1.22818604 28.61779785 1.1157959 29.29858398 1 30 C0.01 30.66 -0.98 31.32 -2 32 C-5.80784208 26.2054577 -6.15291823 21.43044044 -6.1875 14.5625 C-6.20167969 13.28503906 -6.21585938 12.00757812 -6.23046875 10.69140625 C-6.00606734 7.09718029 -5.30528856 4.33803042 -4 1 C-3.34 1.66 -2.68 2.32 -2 3 C-1.34 2.01 -0.68 1.02 0 0 Z " fill="#347994" transform="translate(16,71)"/>
<path d="M0 0 C3.63 0 7.26 0 11 0 C11 1.32 11 2.64 11 4 C8.69 4 6.38 4 4 4 C4 4.66 4 5.32 4 6 C5.98 6 7.96 6 10 6 C10 6.99 10 7.98 10 9 C8.02 9 6.04 9 4 9 C4 9.99 4 10.98 4 12 C6.31 12 8.62 12 11 12 C11 12.99 11 13.98 11 15 C7.37 15 3.74 15 0 15 C0 10.05 0 5.1 0 0 Z " fill="#487A99" transform="translate(110,79)"/>
<path d="M0 0 C0.99 0 1.98 0 3 0 C3.66 2.64 4.32 5.28 5 8 C4.67 8 4.34 8 4 8 C3.67 10.64 3.34 13.28 3 16 C3.99 16.33 4.98 16.66 6 17 C4.68 17.99 3.36 18.98 2 20 C2.226875 20.763125 2.45375 21.52625 2.6875 22.3125 C2.790625 23.199375 2.89375 24.08625 3 25 C2.02149805 26.02104551 1.02019573 27.0206121 0 28 C-0.25069913 30.62570704 -0.25069913 30.62570704 0 33 C-0.66 33 -1.32 33 -2 33 C-2.11514065 25.04250178 -1.98166111 17.13326748 -1.5625 9.1875 C-1.52326416 8.3929541 -1.48402832 7.5984082 -1.44360352 6.77978516 C-1.12186406 1.12186406 -1.12186406 1.12186406 0 0 Z " fill="#98B7C8" transform="translate(26,70)"/>
<path d="M0 0 C1.670625 0.061875 1.670625 0.061875 3.375 0.125 C3.705 1.115 4.035 2.105 4.375 3.125 C2.065 3.125 -0.245 3.125 -2.625 3.125 C-2.625 4.115 -2.625 5.105 -2.625 6.125 C-1.67625 6.24875 -0.7275 6.3725 0.25 6.5 C3.375 7.125 3.375 7.125 5.375 9.125 C4.81944444 13.68055556 4.81944444 13.68055556 3.375 15.125 C0.70441149 15.26615161 -1.94932238 15.16747107 -4.625 15.125 C-4.955 13.805 -5.285 12.485 -5.625 11.125 C-2.985 11.455 -0.345 11.785 2.375 12.125 C2.375 11.465 2.375 10.805 2.375 10.125 C1.240625 9.815625 0.10625 9.50625 -1.0625 9.1875 C-4.625 8.125 -4.625 8.125 -5.625 7.125 C-5.8125 4.6875 -5.8125 4.6875 -5.625 2.125 C-3.625 0.125 -3.625 0.125 0 0 Z " fill="#447697" transform="translate(83.625,78.875)"/>
<path d="M0 0 C2.14080772 1.12009639 4.24470821 2.31273573 6.3125 3.5625 C7.38113281 4.20316406 8.44976562 4.84382813 9.55078125 5.50390625 C10.35902344 5.99761719 11.16726562 6.49132812 12 7 C9.43237691 10.69859993 7.19309747 12.25287606 3 14 C2.01 14 1.02 14 0 14 C0 12.35 0 10.7 0 9 C1.98 9 3.96 9 6 9 C6 8.34 6 7.68 6 7 C5.38125 6.896875 4.7625 6.79375 4.125 6.6875 C2 6 2 6 0 3 C-1.97747122 2.63702064 -1.97747122 2.63702064 -4.125 2.8125 C-5.40375 2.874375 -6.6825 2.93625 -8 3 C-7.67 2.01 -7.34 1.02 -7 0 C-4.22152308 -1.38923846 -2.97691059 -0.84394786 0 0 Z " fill="#D9E8E0" transform="translate(55,66)"/>
<path d="M0 0 C3.3125 0.1875 3.3125 0.1875 7 1 C9 3.25 9 3.25 10 6 C9.6875 8.8125 9.6875 8.8125 9 11 C6.03 10.67 3.06 10.34 0 10 C0 6.7 0 3.4 0 0 Z " fill="#45799C" transform="translate(160,82)"/>
<path d="M0 0 C0.2475 0.515625 0.495 1.03125 0.75 1.5625 C2.06006035 4.20511991 2.06006035 4.20511991 4.125 7.375 C6.04816398 10.67287009 6.37559475 13.15015379 6 17 C5.01 17 4.02 17 3 17 C3 16.34 3 15.68 3 15 C2.01 15.33 1.02 15.66 0 16 C-1.32 14.02 -2.64 12.04 -4 10 C-3 8 -3 8 -1 7 C-0.59270772 4.67843403 -0.25561323 2.3431213 0 0 Z " fill="#448690" transform="translate(17,94)"/>
<path d="M0 0 C-0.33 1.98 -0.66 3.96 -1 6 C-2.32 6 -3.64 6 -5 6 C-5.33 7.32 -5.66 8.64 -6 10 C-8.475 9.01 -8.475 9.01 -11 8 C-10.67 7.01 -10.34 6.02 -10 5 C-11.32 5.33 -12.64 5.66 -14 6 C-13.0114653 3.30399627 -12.34022364 2.19441351 -9.8125 0.75 C-6.45769347 -0.14461507 -3.45702902 -0.13556977 0 0 Z " fill="#EBF3F5" transform="translate(45,69)"/>
<path d="M0 0 C0.66 0 1.32 0 2 0 C5 4.38461538 5 4.38461538 5 7 C5.94875 7.2475 6.8975 7.495 7.875 7.75 C11 9 11 9 12.375 11.125 C12.58125 11.74375 12.7875 12.3625 13 13 C9.00112425 12.42873204 6.40346284 11.12716428 3 9 C1.34630643 8.30177383 -0.31727014 7.62501395 -2 7 C-1.125 1.125 -1.125 1.125 0 0 Z " fill="#427B99" transform="translate(27,95)"/>
<path d="M0 0 C0.99 0 1.98 0 3 0 C3 7.92 3 15.84 3 24 C3.33 17.07 3.66 10.14 4 3 C4.33 3 4.66 3 5 3 C5 10.92 5 18.84 5 27 C3.68 27.33 2.36 27.66 1 28 C-0.25050287 25.49899426 -0.02993449 23.99656948 0.12109375 21.2109375 C0.16943359 20.26992187 0.21777344 19.32890625 0.26757812 18.359375 C0.32365234 17.37453125 0.37972656 16.3896875 0.4375 15.375 C0.48970703 14.38242188 0.54191406 13.38984375 0.59570312 12.3671875 C0.72558949 9.91115432 0.86056164 7.4555064 1 5 C0.34 4.67 -0.32 4.34 -1 4 C-0.67 2.68 -0.34 1.36 0 0 Z " fill="#97C194" transform="translate(69,72)"/>
<path d="M0 0 C0.99 0 1.98 0 3 0 C3 4.62 3 9.24 3 14 C2.01 14 1.02 14 0 14 C-0.33 12.02 -0.66 10.04 -1 8 C-1.99 9.32 -2.98 10.64 -4 12 C-4.66 10.35 -5.32 8.7 -6 7 C-5.071875 6.1028125 -5.071875 6.1028125 -4.125 5.1875 C-1.86323046 2.99188856 -1.86323046 2.99188856 0 0 Z " fill="#326B90" transform="translate(104,80)"/>
<path d="M0 0 C1.32 0 2.64 0 4 0 C4 4.95 4 9.9 4 15 C2.68 14.67 1.36 14.34 0 14 C0.33 12.35 0.66 10.7 1 9 C-1.31 8.01 -3.62 7.02 -6 6 C-6 5.01 -6 4.02 -6 3 C-3.69 3 -1.38 3 1 3 C0.67 2.01 0.34 1.02 0 0 Z " fill="#D1E8F1" transform="translate(87,79)"/>
<path d="M0 0 C2.97 0 5.94 0 9 0 C9.66 1.32 10.32 2.64 11 4 C13.05000871 4.80528889 13.05000871 4.80528889 15 5 C15 5.66 15 6.32 15 7 C13.02 7 11.04 7 9 7 C9.33 8.98 9.66 10.96 10 13 C9.01 13.495 9.01 13.495 8 14 C8 10.7 8 7.4 8 4 C5.69 4.33 3.38 4.66 1 5 C0.67 3.35 0.34 1.7 0 0 Z " fill="#D2DDDD" transform="translate(46,68)"/>
<path d="M0 0 C0.66 0.66 1.32 1.32 2 2 C1.8125 4.0625 1.8125 4.0625 1 6 C0.01 6.33 -0.98 6.66 -2 7 C-1.01 7.33 -0.02 7.66 1 8 C1 8.66 1 9.32 1 10 C-0.32 9.67 -1.64 9.34 -3 9 C-1.84826645 11.46800047 -0.95216435 13.04783565 1 15 C1.125 17.625 1.125 17.625 1 20 C0.34 20 -0.32 20 -1 20 C-1 19.01 -1 18.02 -1 17 C-1.66 17 -2.32 17 -3 17 C-3 19.64 -3 22.28 -3 25 C-3.33 25 -3.66 25 -4 25 C-4.11632513 21.58362047 -4.18728897 18.16775103 -4.25 14.75 C-4.28351562 13.78191406 -4.31703125 12.81382813 -4.3515625 11.81640625 C-4.45112665 4.5980051 -4.45112665 4.5980051 -1.984375 1.328125 C-1.00210938 0.67070313 -1.00210938 0.67070313 0 0 Z " fill="#BCD2D1" transform="translate(54,85)"/>
<path d="M0 0 C7.63501484 3.44807122 7.63501484 3.44807122 9.28125 5.9375 C10.29278024 8.84015198 9.66976197 11.05304732 9 14 C8.01 13.67 7.02 13.34 6 13 C6 10.69 6 8.38 6 6 C4.02 6.99 2.04 7.98 0 9 C0 6.03 0 3.06 0 0 Z " fill="#E5F2F8" transform="translate(29,77)"/>
<path d="M0 0 C5.94 0 11.88 0 18 0 C18 0.99 18 1.98 18 3 C12.27959989 3.8320582 6.77759884 4.12036664 1 4 C0.67 2.68 0.34 1.36 0 0 Z " fill="#94ACB5" transform="translate(125,100)"/>
<path d="M0 0 C0 2.31 0 4.62 0 7 C-1.32 6.67 -2.64 6.34 -4 6 C-4 7.32 -4 8.64 -4 10 C-5.32 10 -6.64 10 -8 10 C-8 9.01 -8 8.02 -8 7 C-9.65 7 -11.3 7 -13 7 C-4.79310345 0 -4.79310345 0 0 0 Z " fill="#DFEBE6" transform="translate(70,77)"/>
<path d="M0 0 C0 1.65 0 3.3 0 5 C-4.62 5 -9.24 5 -14 5 C-14.33 3.68 -14.66 2.36 -15 1 C-12.8750734 0.83240016 -10.75005624 0.66594799 -8.625 0.5 C-7.44164062 0.4071875 -6.25828125 0.314375 -5.0390625 0.21875 C-3.36213157 0.09804546 -1.68126944 0 0 0 Z " fill="#9DB3BC" transform="translate(159,99)"/>
<path d="M0 0 C3 1 3 1 4.6875 3.875 C6 7 6 7 6 10 C3.36 10 0.72 10 -2 10 C-3.06351675 6.61608307 -3.21442982 5.4195366 -1.5625 2.1875 C-1.046875 1.465625 -0.53125 0.74375 0 0 Z " fill="#4F9079" transform="translate(83,64)"/>
<path d="M0 0 C0.91007812 0.00902344 1.82015625 0.01804688 2.7578125 0.02734375 C3.45648438 0.03894531 4.15515625 0.05054688 4.875 0.0625 C4.875 0.3925 4.875 0.7225 4.875 1.0625 C7.845 1.5575 7.845 1.5575 10.875 2.0625 C7.33519786 5.46545412 3.80847893 5.5950645 -0.875 5.75 C-1.57238281 5.78416016 -2.26976562 5.81832031 -2.98828125 5.85351562 C-4.69997108 5.93558295 -6.4124576 6.00072919 -8.125 6.0625 C-6.805 5.0725 -5.485 4.0825 -4.125 3.0625 C-5.115 2.4025 -6.105 1.7425 -7.125 1.0625 C-4.60024538 -0.19987731 -2.81299534 -0.03606404 0 0 Z " fill="#1B6792" transform="translate(49.125,45.9375)"/>
<path d="M0 0 C5.61 0 11.22 0 17 0 C17.33 1.32 17.66 2.64 18 4 C16.56260487 4.02712066 15.12506137 4.04645067 13.6875 4.0625 C12.48673828 4.07990234 12.48673828 4.07990234 11.26171875 4.09765625 C9 4 9 4 6 3 C4.33378384 2.96125079 2.66605828 2.9549714 1 3 C0.67 2.01 0.34 1.02 0 0 Z " fill="#9BB1BA" transform="translate(106,100)"/>
<path d="M0 0 C0.33 2.97 0.66 5.94 1 9 C0.21625 9.2475 -0.5675 9.495 -1.375 9.75 C-4.32317108 11.15389099 -4.9024777 12.00675737 -6 15 C-6.66 12.36 -7.32 9.72 -8 7 C-6.68 6.01 -5.36 5.02 -4 4 C-4.33 3.34 -4.66 2.68 -5 2 C-2 0 -2 0 0 0 Z " fill="#D3DEE2" transform="translate(35,83)"/>
<path d="M0 0 C5.61 0 11.22 0 17 0 C14.8614515 2.1385485 13.86724686 2.42655063 11 3 C13.97 3.495 13.97 3.495 17 4 C17 4.33 17 4.66 17 5 C11.39 5 5.78 5 0 5 C0 4.67 0 4.34 0 4 C1.65 3.67 3.3 3.34 5 3 C2.525 2.01 2.525 2.01 0 1 C0 0.67 0 0.34 0 0 Z " fill="#58986B" transform="translate(42,121)"/>
<path d="M0 0 C4.43090471 1.20842856 6.98112756 2.51668565 10 6 C9.01 7.485 9.01 7.485 8 9 C5.375 9.1875 5.375 9.1875 3 9 C2.67 8.01 2.34 7.02 2 6 C1.01 5.67 0.02 5.34 -1 5 C-0.67 3.35 -0.34 1.7 0 0 Z " fill="#377E8A" transform="translate(64,48)"/>
<path d="M0 0 C0.78375 0.04125 1.5675 0.0825 2.375 0.125 C2.045 1.445 1.715 2.765 1.375 4.125 C2.365 4.125 3.355 4.125 4.375 4.125 C4.375 4.785 4.375 5.445 4.375 6.125 C3.055 6.125 1.735 6.125 0.375 6.125 C0.72286708 8.10036745 0.72286708 8.10036745 1.375 10.125 C2.035 10.455 2.695 10.785 3.375 11.125 C2.570625 11.24875 1.76625 11.3725 0.9375 11.5 C0.091875 11.70625 -0.75375 11.9125 -1.625 12.125 C-1.955 12.785 -2.285 13.445 -2.625 14.125 C-2.295 10.495 -1.965 6.865 -1.625 3.125 C-2.615 2.795 -3.605 2.465 -4.625 2.125 C-2.625 0.125 -2.625 0.125 0 0 Z " fill="#CBD6D3" transform="translate(61.625,91.875)"/>
<path d="M0 0 C3.3 0.33 6.6 0.66 10 1 C10.33 1.99 10.66 2.98 11 4 C12.6476038 4.71247732 14.31763529 5.37400383 16 6 C17.36365283 6.95824253 18.70794169 7.94721175 20 9 C14.37100039 9.55423996 11.2435578 7.85405659 6.625 5 C5.98433594 4.6184375 5.34367187 4.236875 4.68359375 3.84375 C3.11537245 2.90749848 1.55667355 1.95532843 0 1 C0 0.67 0 0.34 0 0 Z " fill="#CCDED9" transform="translate(53,61)"/>
<path d="M0 0 C0.66 0.66 1.32 1.32 2 2 C1.625 4.125 1.625 4.125 1 6 C0.34 6 -0.32 6 -1 6 C-1 5.01 -1 4.02 -1 3 C-1.66 3 -2.32 3 -3 3 C-2.67 5.64 -2.34 8.28 -2 11 C-0.35 10.34 1.3 9.68 3 9 C3 9.66 3 10.32 3 11 C0 13 0 13 -2.6875 12.625 C-3.450625 12.41875 -4.21375 12.2125 -5 12 C-5 10.35 -5 8.7 -5 7 C-5.66 6.67 -6.32 6.34 -7 6 C-2.25 1.125 -2.25 1.125 0 0 Z " fill="#BCD3DA" transform="translate(34,63)"/>
<path d="M0 0 C0.99 0.33 1.98 0.66 3 1 C1.68962066 2.68477344 0.35156675 4.34808509 -1 6 C-1.8971875 7.11375 -1.8971875 7.11375 -2.8125 8.25 C-5.7568159 10.60545272 -8.3029269 10.71560976 -12 11 C-12 10.34 -12 9.68 -12 9 C-11.360625 8.896875 -10.72125 8.79375 -10.0625 8.6875 C-9.0415625 8.3471875 -9.0415625 8.3471875 -8 8 C-7.67 7.01 -7.34 6.02 -7 5 C-4.9375 4.3125 -4.9375 4.3125 -3 4 C-3 3.34 -3 2.68 -3 2 C-2.01 1.34 -1.02 0.68 0 0 Z " fill="#166096" transform="translate(30,53)"/>
<path d="M0 0 C0 0.66 0 1.32 0 2 C-0.66 2 -1.32 2 -2 2 C-2.433125 2.9590625 -2.433125 2.9590625 -2.875 3.9375 C-4 6 -4 6 -6 7 C-6.66 6.01 -7.32 5.02 -8 4 C-9.98 4.66 -11.96 5.32 -14 6 C-10.0043325 -0.18684 -7.20903549 -0.84812182 0 0 Z " fill="#7FAB81" transform="translate(85,108)"/>
<path d="M0 0 C1.65 0 3.3 0 5 0 C5.36567164 6.460199 5.36567164 6.460199 3.6875 8.9375 C2 10 2 10 -1 10 C-1.33 8.68 -1.66 7.36 -2 6 C-0.68 6 0.64 6 2 6 C2 5.34 2 4.68 2 4 C1.01 4 0.02 4 -1 4 C-0.67 2.68 -0.34 1.36 0 0 Z " fill="#F8FBF9" transform="translate(64,92)"/>
<path d="M0 0 C0.66 0 1.32 0 2 0 C2 0.66 2 1.32 2 2 C3.32 2 4.64 2 6 2 C6.33 3.65 6.66 5.3 7 7 C6.29875 7.12375 5.5975 7.2475 4.875 7.375 C1.82343613 8.03838345 -1.05340938 8.97211955 -4 10 C-4 7.69 -4 5.38 -4 3 C-3.34 3 -2.68 3 -2 3 C-2 3.99 -2 4.98 -2 6 C-1.34 5.67 -0.68 5.34 0 5 C0 3.35 0 1.7 0 0 Z " fill="#B1C3CA" transform="translate(35,63)"/>
<path d="M0 0 C0.97582031 0.00902344 1.95164062 0.01804688 2.95703125 0.02734375 C3.69308594 0.03894531 4.42914063 0.05054688 5.1875 0.0625 C5.1875 0.3925 5.1875 0.7225 5.1875 1.0625 C3.2075 1.3925 1.2275 1.7225 -0.8125 2.0625 C-1.1425 3.3825 -1.4725 4.7025 -1.8125 6.0625 C-1.8125 5.0725 -1.8125 4.0825 -1.8125 3.0625 C-2.4725 3.0625 -3.1325 3.0625 -3.8125 3.0625 C-3.4825 3.7225 -3.1525 4.3825 -2.8125 5.0625 C-2.77227609 7.3954866 -2.76929753 9.72956666 -2.8125 12.0625 C-3.1425 11.4025 -3.4725 10.7425 -3.8125 10.0625 C-4.8025 10.0625 -5.7925 10.0625 -6.8125 10.0625 C-6.1525 8.4125 -5.4925 6.7625 -4.8125 5.0625 C-5.4725 4.7325 -6.1325 4.4025 -6.8125 4.0625 C-6.4825 3.4025 -6.1525 2.7425 -5.8125 2.0625 C-7.4625 2.0625 -9.1125 2.0625 -10.8125 2.0625 C-10.8125 1.7325 -10.8125 1.4025 -10.8125 1.0625 C-7.13862505 0.20951624 -3.7677607 -0.04539471 0 0 Z " fill="#CCE2E9" transform="translate(51.8125,51.9375)"/>
<path d="M0 0 C4.29 0 8.58 0 13 0 C12.67 0.99 12.34 1.98 12 3 C9.11788698 3.96070434 7.30149956 4.10581883 4.3125 4.0625 C3.10013672 4.04896484 3.10013672 4.04896484 1.86328125 4.03515625 C0.94095703 4.01775391 0.94095703 4.01775391 0 4 C0 2.68 0 1.36 0 0 Z " fill="#ADBFC8" transform="translate(77,100)"/>
<path d="M0 0 C0.33 0 0.66 0 1 0 C1 6.27 1 12.54 1 19 C0.67 18.01 0.34 17.02 0 16 C-1.65 15.67 -3.3 15.34 -5 15 C-5 14.01 -5 13.02 -5 12 C-2.525 12.99 -2.525 12.99 0 14 C0 13.01 0 12.02 0 11 C-0.9590625 10.8453125 -0.9590625 10.8453125 -1.9375 10.6875 C-2.618125 10.460625 -3.29875 10.23375 -4 10 C-4.33 9.01 -4.66 8.02 -5 7 C-3.68 7.33 -2.36 7.66 -1 8 C-0.67 5.36 -0.34 2.72 0 0 Z " fill="#BDD0D3" transform="translate(47,89)"/>
<path d="M0 0 C1.32 0.33 2.64 0.66 4 1 C3.125 5.875 3.125 5.875 2 7 C-0.67058851 7.14115161 -3.32432238 7.04247107 -6 7 C-6.33 5.68 -6.66 4.36 -7 3 C-4.36 3.33 -1.72 3.66 1 4 C0.67 2.68 0.34 1.36 0 0 Z " fill="#396C8D" transform="translate(85,87)"/>
<path d="M0 0 C1.32 0 2.64 0 4 0 C4 2.31 4 4.62 4 7 C3.34 7 2.68 7 2 7 C2 7.66 2 8.32 2 9 C0.02 9 -1.96 9 -4 9 C-4 8.01 -4 7.02 -4 6 C-3.01 6 -2.02 6 -1 6 C-1.020625 5.195625 -1.04125 4.39125 -1.0625 3.5625 C-1 1 -1 1 0 0 Z " fill="#EDF5F4" transform="translate(56,84)"/>
<path d="M0 0 C3.05826084 0.59429086 4.94120638 1.512175 7.375 3.4375 C10.43709166 5.72580176 13.27748533 7.00127655 17 8 C16.67 9.32 16.34 10.64 16 12 C14.10297872 10.8143617 12.2064773 9.62800001 10.3125 8.4375 C8.78010063 7.48492742 7.23839487 6.54715371 5.6875 5.625 C4.965625 5.191875 4.24375 4.75875 3.5 4.3125 C2.8296875 3.91675781 2.159375 3.52101563 1.46875 3.11328125 C0.9840625 2.74589844 0.499375 2.37851563 0 2 C0 1.34 0 0.68 0 0 Z " fill="#4F7B8E" transform="translate(31,76)"/>
<path d="M0 0 C1.65 0.99 3.3 1.98 5 3 C4.01 4.98 3.02 6.96 2 9 C-0.475 8.01 -0.475 8.01 -3 7 C-3 5.35 -3 3.7 -3 2 C-2.01 2 -1.02 2 0 2 C0 1.34 0 0.68 0 0 Z " fill="#B2C9CC" transform="translate(42,84)"/>
<path d="M0 0 C2.02237052 0.95394836 4.0282696 1.94535351 6 3 C6 4.32 6 5.64 6 7 C4.125 6.6875 4.125 6.6875 2 6 C1.34 5.01 0.68 4.02 0 3 C-1.97747122 2.63702064 -1.97747122 2.63702064 -4.125 2.8125 C-5.40375 2.874375 -6.6825 2.93625 -8 3 C-7.67 2.01 -7.34 1.02 -7 0 C-4.23868631 -1.38065685 -2.96128936 -0.80762437 0 0 Z " fill="#EAF6F6" transform="translate(55,66)"/>
<path d="M0 0 C4.56140868 2.01550616 7.71436161 4.23117949 11 8 C11 8.66 11 9.32 11 10 C7.50155614 9.36610765 5.15913124 7.94822306 2.25 5.9375 C1.45078125 5.38964844 0.6515625 4.84179688 -0.171875 4.27734375 C-0.77515625 3.85582031 -1.3784375 3.43429688 -2 3 C-1.34 2.67 -0.68 2.34 0 2 C0 1.34 0 0.68 0 0 Z " fill="#54878A" transform="translate(40,106)"/>
<path d="M0 0 C0.99 0.33 1.98 0.66 3 1 C3.33 2.98 3.66 4.96 4 7 C-0.75 10 -0.75 10 -3 10 C-3 7.36 -3 4.72 -3 2 C-2.34 2 -1.68 2 -1 2 C-1 2.99 -1 3.98 -1 5 C-0.34 5 0.32 5 1 5 C0.67 3.35 0.34 1.7 0 0 Z " fill="#D1E5E4" transform="translate(54,100)"/>
<path d="M0 0 C0.66 0 1.32 0 2 0 C2 3.63 2 7.26 2 11 C4.31 11 6.62 11 9 11 C9 11.66 9 12.32 9 13 C6.03 13 3.06 13 0 13 C0 8.71 0 4.42 0 0 Z " fill="#1F567B" transform="translate(130,80)"/>
<path d="M0 0 C0.66 0 1.32 0 2 0 C2 5.94 2 11.88 2 18 C1.34 18 0.68 18 0 18 C-0.19384179 15.18780295 -0.38036603 12.37545804 -0.5625 9.5625 C-0.61857422 8.76005859 -0.67464844 7.95761719 -0.73242188 7.13085938 C-0.8616295 5.08937889 -0.9351273 3.04453631 -1 1 C-0.67 0.67 -0.34 0.34 0 0 Z " fill="#306289" transform="translate(26,70)"/>
<path d="M0 0 C2 0.75 2 0.75 4 3.75 C4 4.74 4 5.73 4 6.75 C1.69 7.08 -0.62 7.41 -3 7.75 C-4.0625 5.9375 -4.0625 5.9375 -5 3.75 C-4.67 2.76 -4.34 1.77 -4 0.75 C-2 -0.25 -2 -0.25 0 0 Z " fill="#3176A5" transform="translate(42,46.25)"/>
<path d="M0 0 C2.16874252 0.50603992 3.99967627 0.99983813 6 2 C5 5 5 5 2.75 6.1875 C0.00208853 6.99938294 -2.15447889 7.16260121 -5 7 C-4.01 6.67 -3.02 6.34 -2 6 C-0.77479736 2.99152582 -0.77479736 2.99152582 0 0 Z " fill="#639F63" transform="translate(65,118)"/>
<path d="M0 0 C3.96 0 7.92 0 12 0 C12 0.99 12 1.98 12 3 C7.71 3 3.42 3 -1 3 C-0.67 2.01 -0.34 1.02 0 0 Z " fill="#9AAFB9" transform="translate(92,100)"/>
<path d="M0 0 C1.32 0.33 2.64 0.66 4 1 C4.6875 3.3125 4.6875 3.3125 5 6 C4.02149805 7.02104551 3.02019573 8.0206121 2 9 C1.74930087 11.62570704 1.74930087 11.62570704 2 14 C1.34 14 0.68 14 0 14 C0 9.38 0 4.76 0 0 Z " fill="#B0C8D1" transform="translate(24,89)"/>
<path d="M0 0 C0.66 0.33 1.32 0.66 2 1 C0.625 3 0.625 3 -1 5 C-1.66 5 -2.32 5 -3 5 C-3 5.66 -3 6.32 -3 7 C-4.32 7.33 -5.64 7.66 -7 8 C-7.33 9.32 -7.66 10.64 -8 12 C-9.32 11.67 -10.64 11.34 -12 11 C-10.75323147 9.72599623 -9.5024352 8.45593346 -8.25 7.1875 C-7.55390625 6.47980469 -6.8578125 5.77210937 -6.140625 5.04296875 C-4.18571355 3.17724121 -2.19661447 1.56830358 0 0 Z " fill="#2D6895" transform="translate(30,50)"/>
<path d="M0 0 C0.33 1.32 0.66 2.64 1 4 C2.32 3.67 3.64 3.34 5 3 C5 3.66 5 4.32 5 5 C3.02 5.66 1.04 6.32 -1 7 C-1 7.99 -1 8.98 -1 10 C-1.66 10 -2.32 10 -3 10 C-4.26339822 6.20980534 -3.49719015 4.62477616 -2 1 C-1.34 0.67 -0.68 0.34 0 0 Z " fill="#B1C3C5" transform="translate(46,71)"/>
<path d="M0 0 C0.33 1.32 0.66 2.64 1 4 C1.66 4.33 2.32 4.66 3 5 C2.67 5.99 2.34 6.98 2 8 C1.67 7.34 1.34 6.68 1 6 C-0.97888961 5.27306096 -2.97954558 4.60183749 -5 4 C-5.33 4.66 -5.66 5.32 -6 6 C-6.99 6.495 -6.99 6.495 -8 7 C-8.66 6.34 -9.32 5.68 -10 5 C-6.7 3.35 -3.4 1.7 0 0 Z " fill="#7BAB7D" transform="translate(70,114)"/>
<path d="M0 0 C0.33 0 0.66 0 1 0 C1.042721 1.66611905 1.04063832 3.33382885 1 5 C0.67 5.33 0.34 5.66 0 6 C-0.08651611 7.41570123 -0.10704904 8.835595 -0.09765625 10.25390625 C-0.09443359 11.10791016 -0.09121094 11.96191406 -0.08789062 12.84179688 C-0.07951172 13.73962891 -0.07113281 14.63746094 -0.0625 15.5625 C-0.05798828 16.46419922 -0.05347656 17.36589844 -0.04882812 18.29492188 C-0.03700225 20.53001314 -0.0205222 22.76497437 0 25 C-2.31513048 20.87552723 -2.29720161 17.13362493 -2.25 12.5 C-2.25773437 11.74074219 -2.26546875 10.98148438 -2.2734375 10.19921875 C-2.25989235 6.33207722 -2.19299412 3.27208646 0 0 Z " fill="#C0DDE9" transform="translate(19,73)"/>
<path d="M0 0 C0.66 0 1.32 0 2 0 C2 0.66 2 1.32 2 2 C2.66 2 3.32 2 4 2 C4 1.34 4 0.68 4 0 C5.98 0 7.96 0 10 0 C10 1.32 10 2.64 10 4 C7.03 4 4.06 4 1 4 C0.67 2.68 0.34 1.36 0 0 Z " fill="#A5B6BE" transform="translate(160,100)"/>
<path d="M0 0 C-0.99 0.495 -0.99 0.495 -2 1 C-2 2.98 -2 4.96 -2 7 C-4.375 7.625 -4.375 7.625 -7 8 C-7.66 7.34 -8.32 6.68 -9 6 C-6 4 -6 4 -3 4 C-3 3.34 -3 2.68 -3 2 C-4.32 2.33 -5.64 2.66 -7 3 C-7 2.34 -7 1.68 -7 1 C-4.53721199 -0.231394 -2.7204945 -0.07159196 0 0 Z " fill="#E1EAEB" transform="translate(54,72)"/>
<path d="M0 0 C0.33 0.99 0.66 1.98 1 3 C0.01 3.33 -0.98 3.66 -2 4 C-2 4.66 -2 5.32 -2 6 C-1.34 6 -0.68 6 0 6 C0 7.32 0 8.64 0 10 C0.66 10 1.32 10 2 10 C2 10.66 2 11.32 2 12 C1.01 12.33 0.02 12.66 -1 13 C-1.12375 12.195625 -1.2475 11.39125 -1.375 10.5625 C-1.684375 9.2940625 -1.684375 9.2940625 -2 8 C-2.66 7.67 -3.32 7.34 -4 7 C-3.39816251 4.97954558 -2.72693904 2.97888961 -2 1 C-1.34 0.67 -0.68 0.34 0 0 Z " fill="#C7D7DB" transform="translate(43,57)"/>
<path d="M0 0 C3.96 0 7.92 0 12 0 C11.67 0.66 11.34 1.32 11 2 C9.02 2 7.04 2 5 2 C5.99 2.66 6.98 3.32 8 4 C5.69 4 3.38 4 1 4 C0.67 2.68 0.34 1.36 0 0 Z " fill="#B4C7CF" transform="translate(125,100)"/>
<path d="M0 0 C-0.33 1.32 -0.66 2.64 -1 4 C-3.31 4.66 -5.62 5.32 -8 6 C-8.33 5.01 -8.66 4.02 -9 3 C-6.38997624 -0.48003168 -4.1689578 -0.27793052 0 0 Z " fill="#73A477" transform="translate(74,99)"/>
<path d="M0 0 C0.33 0 0.66 0 1 0 C1 3.3 1 6.6 1 10 C-1.31 9.67 -3.62 9.34 -6 9 C-5.566875 8.443125 -5.13375 7.88625 -4.6875 7.3125 C-2.92891017 4.98072351 -2.92891017 4.98072351 -1.375 2.25 C-0.92125 1.5075 -0.4675 0.765 0 0 Z " fill="#D9E8EA" transform="translate(46,88)"/>
<path d="M0 0 C0.99 0.33 1.98 0.66 3 1 C3.6875 3.0625 3.6875 3.0625 4 5 C1.525 4.01 1.525 4.01 -1 3 C-0.67 2.01 -0.34 1.02 0 0 Z M-2 3 C-1.67 3 -1.34 3 -1 3 C-1 4.98 -1 6.96 -1 9 C0.98 9 2.96 9 5 9 C5.33 8.34 5.66 7.68 6 7 C6 7.99 6 8.98 6 10 C3.36 10 0.72 10 -2 10 C-3.125 5.25 -3.125 5.25 -2 3 Z " fill="#78A99C" transform="translate(83,64)"/>
<path d="M0 0 C2.62113708 0 4.50935112 0.31292445 7 1 C7 2.65 7 4.3 7 6 C6.01 6 5.02 6 4 6 C4 5.34 4 4.68 4 4 C3.01 4.33 2.02 4.66 1 5 C0.67 3.35 0.34 1.7 0 0 Z " fill="#378085" transform="translate(16,105)"/>
<path d="M0 0 C0.99 0 1.98 0 3 0 C4.09658936 3.28976808 3.79953138 4.71303767 3 8 C1.68 7.34 0.36 6.68 -1 6 C-1.042721 4.33388095 -1.04063832 2.66617115 -1 1 C-0.67 0.67 -0.34 0.34 0 0 Z " fill="#F6FCFC" transform="translate(31,93)"/>
<path d="M0 0 C2.31 0.33 4.62 0.66 7 1 C7 1.33 7 1.66 7 2 C5.35 2 3.7 2 2 2 C0.99782936 5.58327753 0.99782936 5.58327753 2 9 C-1 10 -1 10 -3.1875 9.0625 C-3.785625 8.711875 -4.38375 8.36125 -5 8 C-3.35 7.01 -1.7 6.02 0 5 C-0.66 4.01 -1.32 3.02 -2 2 C-1.34 2 -0.68 2 0 2 C0 1.34 0 0.68 0 0 Z " fill="#88B094" transform="translate(66,69)"/>
<path d="M0 0 C1.0326802 2.78823655 1.04509293 3.8677274 0.0625 6.75 C-0.288125 7.4925 -0.63875 8.235 -1 9 C-1.66 9 -2.32 9 -3 9 C-3.66 8.34 -4.32 7.68 -5 7 C-4.625 3.875 -4.625 3.875 -4 1 C-3.34 1.66 -2.68 2.32 -2 3 C-1.34 2.01 -0.68 1.02 0 0 Z " fill="#2D72A1" transform="translate(16,71)"/>
<path d="M0 0 C0.33 0.66 0.66 1.32 1 2 C3.31 1.34 5.62 0.68 8 0 C7.42647107 3.87132028 5.51295648 6.08172796 3 9 C3 7.02 3 5.04 3 3 C1.68 3.33 0.36 3.66 -1 4 C-0.67 2.68 -0.34 1.36 0 0 Z " fill="#2C6995" transform="translate(17,62)"/>
<path d="M0 0 C2.12493141 -0.02693575 4.24995912 -0.04636628 6.375 -0.0625 C7.55835938 -0.07410156 8.74171875 -0.08570313 9.9609375 -0.09765625 C13 0 13 0 15 1 C15 1.66 15 2.32 15 3 C11.7 3 8.4 3 5 3 C5 2.67 5 2.34 5 2 C3.35 1.67 1.7 1.34 0 1 C0 0.67 0 0.34 0 0 Z " fill="#5188A5" transform="translate(45,45)"/>
<path d="M0 0 C0.99 0.33 1.98 0.66 3 1 C4.15941038 4.47823115 3.70820884 6.45895578 3 10 C2.01 9.67 1.02 9.34 0 9 C0 6.03 0 3.06 0 0 Z " fill="#F3F8F9" transform="translate(35,81)"/>
<path d="M0 0 C1.134375 0.020625 2.26875 0.04125 3.4375 0.0625 C3.7675 1.0525 4.0975 2.0425 4.4375 3.0625 C1.7975 3.0625 -0.8425 3.0625 -3.5625 3.0625 C-3.8925 4.0525 -4.2225 5.0425 -4.5625 6.0625 C-4.605221 4.39638095 -4.60313832 2.72867115 -4.5625 1.0625 C-3.5625 0.0625 -3.5625 0.0625 0 0 Z " fill="#3C6E8D" transform="translate(83.5625,78.9375)"/>
<path d="M0 0 C3.78786597 0.5260925 6.17152224 1.38103911 9 4 C9 4.66 9 5.32 9 6 C4.70042176 5.52226908 2.78280018 4.29813355 0 1 C0 0.67 0 0.34 0 0 Z " fill="#3F788B" transform="translate(31,102)"/>
<path d="M0 0 C0.99 0.33 1.98 0.66 3 1 C3 3.64 3 6.28 3 9 C1.68 8.34 0.36 7.68 -1 7 C-0.67 4.69 -0.34 2.38 0 0 Z " fill="#D4E1E5" transform="translate(37,97)"/>
<path d="M0 0 C0.99 0 1.98 0 3 0 C2.67 3.3 2.34 6.6 2 10 C1.34 10 0.68 10 0 10 C0 8.35 0 6.7 0 5 C-0.66 4.67 -1.32 4.34 -2 4 C-1.34 2.68 -0.68 1.36 0 0 Z " fill="#F3FAF6" transform="translate(57,96)"/>
<path d="M0 0 C0.99 0 1.98 0 3 0 C3 2.97 3 5.94 3 9 C2.01 8.67 1.02 8.34 0 8 C0 5.36 0 2.72 0 0 Z " fill="#1C6B98" transform="translate(12,80)"/>
<path d="M0 0 C2.9375 1.3125 2.9375 1.3125 6 3 C6.33 3.99 6.66 4.98 7 6 C3.17902761 5.46930939 0.93828597 4.50298434 -2 2 C-1.34 2 -0.68 2 0 2 C0 1.34 0 0.68 0 0 Z " fill="#6D9B89" transform="translate(59,65)"/>
<path d="M0 0 C0.33 0.66 0.66 1.32 1 2 C0.67 2.99 0.34 3.98 0 5 C0.66 5.33 1.32 5.66 2 6 C1.34 7.32 0.68 8.64 0 10 C0 9.01 0 8.02 0 7 C-1.32 7.33 -2.64 7.66 -4 8 C-2.25 2.25 -2.25 2.25 0 0 Z " fill="#CCE1EC" transform="translate(24,65)"/>
<path d="M0 0 C0.66 0.66 1.32 1.32 2 2 C1.625 4.125 1.625 4.125 1 6 C0.34 6 -0.32 6 -1 6 C-1 5.01 -1 4.02 -1 3 C-1.66 3 -2.32 3 -3 3 C-3.33 3.99 -3.66 4.98 -4 6 C-4.66 6 -5.32 6 -6 6 C-4.95125002 3.37812506 -4.35068687 2.20628639 -1.875 0.75 C-1.25625 0.5025 -0.6375 0.255 0 0 Z " fill="#CFDCDF" transform="translate(34,63)"/>
<path d="M0 0 C0.66 0 1.32 0 2 0 C2 1.65 2 3.3 2 5 C-1.96 5 -5.92 5 -10 5 C-10 4.67 -10 4.34 -10 4 C-7.03 4 -4.06 4 -1 4 C-0.67 2.68 -0.34 1.36 0 0 Z " fill="#BFCFD7" transform="translate(157,99)"/>
<path d="M0 0 C0.66 0 1.32 0 2 0 C2 0.66 2 1.32 2 2 C3.32 2.66 4.64 3.32 6 4 C5.01 4.99 4.02 5.98 3 7 C1.68 5.68 0.36 4.36 -1 3 C-0.67 2.01 -0.34 1.02 0 0 Z " fill="#5D9797" transform="translate(48,108)"/>
<path d="M0 0 C1.65 0.33 3.3 0.66 5 1 C5.33 2.65 5.66 4.3 6 6 C3.08482708 4.92598892 1.22189824 4.22189824 -1 2 C-0.67 1.34 -0.34 0.68 0 0 Z " fill="#D1E7EB" transform="translate(42,104)"/>
<path d="M0 0 C0.99 0.33 1.98 0.66 3 1 C3 1.66 3 2.32 3 3 C3.66 3.33 4.32 3.66 5 4 C4.195625 4.12375 3.39125 4.2475 2.5625 4.375 C1.2940625 4.684375 1.2940625 4.684375 0 5 C-0.33 5.66 -0.66 6.32 -1 7 C-1.04254356 5.00045254 -1.04080783 2.99958364 -1 1 C-0.67 0.67 -0.34 0.34 0 0 Z " fill="#B7CDC3" transform="translate(60,99)"/>
<path d="M0 0 C2.97 0 5.94 0 9 0 C8.01 1.485 8.01 1.485 7 3 C3.875 3.1875 3.875 3.1875 1 3 C0.67 2.01 0.34 1.02 0 0 Z " fill="#9DB1B9" transform="translate(106,100)"/>
<path d="M0 0 C-1.3125 1.5 -1.3125 1.5 -3 3 C-3.99 3 -4.98 3 -6 3 C-6.33 1.68 -6.66 0.36 -7 -1 C-3.51418144 -2.2020064 -3.32007656 -2.21338437 0 0 Z " fill="#EDF9F3" transform="translate(69,99)"/>
<path d="M0 0 C2 1.1875 2 1.1875 4 3 C4.25 5.6875 4.25 5.6875 4 8 C3.01 8 2.02 8 1 8 C0.26919734 6.02253397 -0.39421747 4.01927511 -1 2 C-0.67 1.34 -0.34 0.68 0 0 Z " fill="#88B5D0" transform="translate(145,80)"/>
<path d="M0 0 C2.475 0.495 2.475 0.495 5 1 C4.34 2.32 3.68 3.64 3 5 C2.01 5 1.02 5 0 5 C0 3.35 0 1.7 0 0 Z " fill="#F0F7F5" transform="translate(55,75)"/>
<path d="M0 0 C0.99 0 1.98 0 3 0 C2.40138258 2.35171131 1.73075648 4.6859378 1 7 C0.01 7.495 0.01 7.495 -1 8 C-1 7.34 -1 6.68 -1 6 C-1.66 6 -2.32 6 -3 6 C-3 5.34 -3 4.68 -3 4 C-2.34 3.67 -1.68 3.34 -1 3 C-0.67 2.01 -0.34 1.02 0 0 Z " fill="#B2C6C9" transform="translate(44,57)"/>
<path d="M0 0 C2 2 2 2 2.125 5.625 C2.08375 6.73875 2.0425 7.8525 2 9 C1.67 8.34 1.34 7.68 1 7 C0.01 7 -0.98 7 -2 7 C-1.34 5.35 -0.68 3.7 0 2 C-0.66 1.67 -1.32 1.34 -2 1 C-1.34 0.67 -0.68 0.34 0 0 Z " fill="#D9E6EA" transform="translate(47,55)"/>
<path d="M0 0 C0 1.32 0 2.64 0 4 C-0.66 4 -1.32 4 -2 4 C-2 3.34 -2 2.68 -2 2 C-4.31 1.67 -6.62 1.34 -9 1 C-9 0.67 -9 0.34 -9 0 C-5.62182575 -0.84454356 -3.32534757 -1.10844919 0 0 Z " fill="#36698C" transform="translate(169,81)"/>
<path d="M0 0 C-1.6875 2.0625 -1.6875 2.0625 -4 4 C-6.75 3.75 -6.75 3.75 -9 3 C-6.38997624 -0.48003168 -4.1689578 -0.27793052 0 0 Z " fill="#729D87" transform="translate(65,78)"/>
<path d="M0 0 C1.98 0 3.96 0 6 0 C6.33 0.99 6.66 1.98 7 3 C4.69 3 2.38 3 0 3 C0 2.01 0 1.02 0 0 Z " fill="#DEF2FB" transform="translate(114,88)"/>
<path d="M0 0 C0.66 0 1.32 0 2 0 C2 0.99 2 1.98 2 3 C2.99 3.33 3.98 3.66 5 4 C4.01 4 3.02 4 2 4 C2 4.99 2 5.98 2 7 C1.34 7 0.68 7 0 7 C-0.93423645 3.98968256 -1.04449911 3.13349732 0 0 Z " fill="#C9D3CF" transform="translate(60,84)"/>
<path d="M0 0 C-0.33 1.98 -0.66 3.96 -1 6 C-2.32 6.33 -3.64 6.66 -5 7 C-5 3 -5 3 -3.625 1.25 C-2 0 -2 0 0 0 Z " fill="#CBD9D8" transform="translate(35,83)"/>
<path d="M0 0 C1.98 0.99 1.98 0.99 4 2 C4 2.99 4 3.98 4 5 C4.99 5 5.98 5 7 5 C6.67 5.99 6.34 6.98 6 8 C5.34 8 4.68 8 4 8 C2.68 5.36 1.36 2.72 0 0 Z " fill="#D7EEF7" transform="translate(94,79)"/>
<path d="M0 0 C0 2.31 0 4.62 0 7 C-0.66 7 -1.32 7 -2 7 C-2.66 5.02 -3.32 3.04 -4 1 C-2 0 -2 0 0 0 Z " fill="#D9ECDB" transform="translate(70,77)"/>
<path d="M0 0 C0.99 0.33 1.98 0.66 3 1 C1.25 3.0625 1.25 3.0625 -1 5 C-3.25 4.75 -3.25 4.75 -5 4 C-4.34 4 -3.68 4 -3 4 C-3 3.34 -3 2.68 -3 2 C-2.01 1.34 -1.02 0.68 0 0 Z " fill="#1564A2" transform="translate(30,53)"/>
<path d="M0 0 C0.66 0 1.32 0 2 0 C3.60725635 3.21451269 3.05748185 6.43612536 3 10 C2.67 10 2.34 10 2 10 C2 8.02 2 6.04 2 4 C0.68 3.67 -0.64 3.34 -2 3 C-1.34 3 -0.68 3 0 3 C0 2.01 0 1.02 0 0 Z " fill="#DFEEE0" transform="translate(67,88)"/>
<path d="M0 0 C1.98 0 3.96 0 6 0 C6 0.99 6 1.98 6 3 C4.02 3 2.04 3 0 3 C0 2.01 0 1.02 0 0 Z " fill="#CFEDF8" transform="translate(160,88)"/>
<path d="M0 0 C0 0.66 0 1.32 0 2 C-2.875 2.125 -2.875 2.125 -6 2 C-6.66 1.34 -7.32 0.68 -8 0 C-5.13822943 -1.43088528 -3.06624227 -0.59991697 0 0 Z " fill="#D5EDF6" transform="translate(86,89)"/>
<path d="M0 0 C0.66 0.33 1.32 0.66 2 1 C0.02 2.98 -1.96 4.96 -4 7 C-4.99 6.67 -5.98 6.34 -7 6 C-4.69 4.02 -2.38 2.04 0 0 Z " fill="#C7DEED" transform="translate(32,57)"/>
<path d="M0 0 C0.99 0 1.98 0 3 0 C3.33 1.32 3.66 2.64 4 4 C1.69 4 -0.62 4 -3 4 C-2.01 3.67 -1.02 3.34 0 3 C0 2.01 0 1.02 0 0 Z " fill="#B6C7CF" transform="translate(120,100)"/>
<path d="M0 0 C2.5654594 2.5654594 2.54046087 4.47686668 3 8 C2.01 8 1.02 8 0 8 C0 5.36 0 2.72 0 0 Z " fill="#4D7B98" transform="translate(152,86)"/>
<path d="M0 0 C1.65 0 3.3 0 5 0 C5.33 0.99 5.66 1.98 6 3 C4.02 3 2.04 3 0 3 C0 2.01 0 1.02 0 0 Z " fill="#C2E5F4" transform="translate(160,82)"/>
<path d="M0 0 C0 2.64 0 5.28 0 8 C-2 7 -2 7 -3.125 3.9375 C-3.41375 2.968125 -3.7025 1.99875 -4 1 C-1 0 -1 0 0 0 Z " fill="#EBF9FC" transform="translate(156,84)"/>
<path d="M0 0 C1.32 0.33 2.64 0.66 4 1 C4 2.98 4 4.96 4 7 C3.67 6.34 3.34 5.68 3 5 C2.34 5 1.68 5 1 5 C0.67 3.35 0.34 1.7 0 0 Z " fill="#C4D7C6" transform="translate(66,83)"/>
<path d="M0 0 C1.98 0.495 1.98 0.495 4 1 C3.67 2.32 3.34 3.64 3 5 C1.68 4.67 0.36 4.34 -1 4 C-0.67 2.68 -0.34 1.36 0 0 Z " fill="#639995" transform="translate(48,84)"/>
<path d="M0 0 C0.33 0.66 0.66 1.32 1 2 C2.32 1.67 3.64 1.34 5 1 C5 1.66 5 2.32 5 3 C3.02 3.66 1.04 4.32 -1 5 C-1.33 4.34 -1.66 3.68 -2 3 C-1.34 2.01 -0.68 1.02 0 0 Z " fill="#C2CCCF" transform="translate(46,73)"/>
<path d="M0 0 C0.99 0 1.98 0 3 0 C3.33 1.65 3.66 3.3 4 5 C2.35 4.67 0.7 4.34 -1 4 C-0.67 2.68 -0.34 1.36 0 0 Z " fill="#6C909D" transform="translate(38,65)"/>
<path d="M0 0 C0.66 0 1.32 0 2 0 C2.66 1.65 3.32 3.3 4 5 C3.01 5.495 3.01 5.495 2 6 C1.01 5.67 0.02 5.34 -1 5 C-0.67 3.35 -0.34 1.7 0 0 Z " fill="#2E7D93" transform="translate(64,48)"/>
<path d="M0 0 C2 0.1875 2 0.1875 4 1 C4.66 1.99 5.32 2.98 6 4 C5.01 4.33 4.02 4.66 3 5 C3 4.34 3 3.68 3 3 C1.35 2.67 -0.3 2.34 -2 2 C-1.34 1.34 -0.68 0.68 0 0 Z " fill="#2E6F99" transform="translate(40,46)"/>
</svg>
